<svg width="26" height="27" viewBox="0 0 26 27" fill="none" xmlns="http://www.w3.org/2000/svg">
  <path d="M6.37387 22.2586C8.01061 23.7555 10.1502 24.5827 12.3682 24.576C18.962 24.576 25 18.8917 25 11.9444C25 7.11911 23.7368 4.36543 22.4736 1.83911C19.9473 4.97174 18.0525 5.62858 10.8524 7.01806C8.66604 7.39157 6.69988 8.57316 5.34391 10.3285C3.98795 12.0838 3.34122 14.2846 3.532 16.4944C3.62188 17.5355 3.89456 18.5428 4.32901 19.4736C4.8167 20.5184 5.50824 21.4669 6.37387 22.2586Z" fill="#4DA652"/>
  <path d="M1 25.8391C1 22.0496 3.33687 19.0686 7.41693 18.2602C10.4738 17.6538 13.6318 15.7338 14.8949 14.4707M12.3682 24.576C10.1502 24.5827 8.01061 23.7555 6.37387 22.2586C4.73713 20.7616 3.72278 18.7042 3.532 16.4944C3.34122 14.2846 3.98795 12.0838 5.34391 10.3285C6.69988 8.57316 8.66604 7.39157 10.8524 7.01806C18.0525 5.62858 19.9473 4.97174 22.4736 1.83911C23.7368 4.36543 25 7.11911 25 11.9444C25 18.8917 18.962 24.576 12.3682 24.576Z" stroke="white" stroke-width="2" stroke-linecap="round"/>
</svg>
